<?xml version="1.0" encoding="utf-8"?>
<!-- Generator: Adobe Illustrator 27.8.0, SVG Export Plug-In . SVG Version: 6.00 Build 0)  -->
<svg version="1.1" id="Layer_1" xmlns="http://www.w3.org/2000/svg" xmlns:xlink="http://www.w3.org/1999/xlink" x="0px" y="0px"
	 viewBox="0 0 625.3 130.52" style="enable-background:new 0 0 625.3 130.52;" xml:space="preserve">
<g>
	<path d="M0,3.89c3.63,0,7.02,0,10.41,0c4.5,0.01,9,0.11,13.49,0c1.75-0.04,2.38,0.47,2.77,2.22c4.08,18.35,8.27,36.68,12.43,55.02
		c0.04,0.16,0.12,0.3,0.47,1.12c0.54-3.21,1.02-5.82,1.41-8.44c2.05-13.69,4.09-27.38,6.07-41.08c0.18-1.25,0.4-1.97,1.88-1.97
		c8.74,0.04,17.48,0.02,26.59,0.02c4.17,19.7,8.33,39.35,12.48,59c0.16,0.01,0.32,0.02,0.49,0.02c1.19-5.16,2.4-10.32,3.57-15.49
		c3.57-15.75,7.16-31.5,10.64-47.27c0.45-2.02,1.29-2.58,3.33-2.54c7.74,0.13,15.48,0.05,23.42,0.05
		c-1.84,7.14-3.64,14.25-5.5,21.35c-8.1,30.92-16.25,61.83-24.24,92.78c-0.68,2.62-1.69,3.37-4.3,3.26
		c-5.39-0.22-10.81-0.15-16.21-0.02c-1.84,0.04-2.56-0.56-3.02-2.33c-3.96-15.31-8.03-30.6-12.07-45.89
		c-0.2-0.77-0.44-1.54-1.09-2.31c-0.98,4.68-1.97,9.36-2.93,14.04c-2.36,11.52-4.71,23.05-7.02,34.58
		c-0.25,1.22-0.65,1.89-2.07,1.88c-6.65-0.06-13.3-0.03-20.32-0.03C20.48,82.65,10.28,43.43,0,3.89z"/>
	<path d="M506.17,78.48c-1.29-24.59-2.59-49.17-3.89-73.98c8.1,0,15.96,0,24.1,0c0.28,38.9,0.56,77.8,0.85,116.84
		c-0.54,0.08-0.93,0.2-1.32,0.2c-9.75,0.01-19.49-0.06-29.24,0.07c-1.93,0.02-2.17-1.16-2.6-2.37
		c-5.35-15.06-10.58-30.18-16.06-45.19c-3.47-9.49-7.32-18.84-11.01-28.25c-0.32-0.82-0.73-1.61-1.53-2.3
		c1.92,25.91,3.84,51.83,5.77,77.9c-9.05,0-17.92,0-27.02,0c-0.49-38.92-0.98-77.75-1.47-116.98c0.81,0,1.6,0,2.39,0
		c10.75,0,21.49,0.04,32.24-0.04c1.78-0.01,2.54,0.5,3.13,2.22c8.08,23.41,16.26,46.79,24.41,70.17c0.21,0.6,0.44,1.2,0.66,1.79
		C505.77,78.54,505.97,78.51,506.17,78.48z"/>
	<path d="M540.69,86.32c7.32-1.48,14.54-2.94,22.06-4.46c0.4,1.59,0.72,3.09,1.15,4.55c0.6,2.06,1.17,4.14,1.93,6.15
		c1.78,4.65,5.15,7.4,10.13,8.15c4.98,0.75,9.94,0.97,14.82-0.53c4.83-1.49,6.7-4.73,5.52-9.56c-1.13-4.62-3.55-8.24-8.4-9.64
		c-7.97-2.29-16-4.42-23.94-6.83c-4.12-1.25-8.16-2.79-12.11-4.51c-7.08-3.07-11.11-8.48-12.56-16.14
		c-1.92-10.14-2.18-20.11,1.48-29.9c4.33-11.61,12.3-19.04,24.77-21.35c7.86-1.46,15.72-1.81,23.53-0.1
		c13.17,2.9,21.4,11.54,26.27,23.6c2.39,5.93,3.83,12.16,3.52,18.99c-8.24,1.44-16.44,2.87-24.46,4.28
		c-0.92-4.46-1.43-8.77-2.71-12.84c-3.71-11.76-13.11-14.31-23.4-11.32c-4.14,1.2-6.65,4.13-7.49,8.48
		c-1.68,8.64,1.5,14.23,10,16.29c8.23,1.99,16.61,3.36,24.88,5.17c4.05,0.89,8.03,2.08,12,3.29c6.84,2.09,10.76,6.52,11.87,13.8
		c1.27,8.34,2.15,16.63,0.9,25.01c-1.84,12.25-8.5,20.69-20.33,24.72c-10.89,3.71-22.06,3.99-33.24,1.72
		c-8.61-1.74-15.07-6.56-19.21-14.49C543.95,101.79,541.17,94.54,540.69,86.32z"/>
	<path d="M213.71,121.8c-9.08,0-17.87,0-27.02,0c-0.82-2.7-1.73-5.67-2.61-8.64c-1.32-4.44-2.69-8.88-3.91-13.35
		c-0.37-1.37-0.92-1.82-2.39-1.76c-9.73,0.41-19.45,0.73-29.18,1.01c-1.38,0.04-1.8,0.59-2.14,1.82c-1.75,6.48-3.6,12.92-5.43,19.38
		c-0.16,0.55-0.37,1.09-0.54,1.59c-8.96,0-17.84,0-27.11,0c1.51-4.78,2.91-9.25,4.35-13.71c11-34.04,22.01-68.08,32.98-102.14
		c0.49-1.53,1.11-2.28,2.93-2.24c6.24,0.13,12.49,0.11,18.73,0.01c1.64-0.03,2.24,0.6,2.74,2.08
		c12.6,37.79,25.25,75.56,37.89,113.33C213.26,119.93,213.42,120.72,213.71,121.8z M172.5,75.03c-3.09-10.54-6.07-20.7-9.05-30.86
		c-0.17-0.01-0.33-0.01-0.5-0.02c-3.03,10.6-6.07,21.19-9.22,32.2C160.11,75.9,166.04,75.48,172.5,75.03z"/>
	<path d="M304.76,57.94c1.7,0.74,2.28-0.64,3.01-1.71c11.27-16.34,22.56-32.66,33.76-49.06c1.31-1.92,2.65-2.72,5.04-2.67
		c8.83,0.16,17.66,0.06,26.48,0.06c0.88,0,1.77,0,3.24,0c-14.81,19.4-29.26,38.32-43.84,57.41c15.7,19.89,31.37,39.74,47.4,60.04
		c-1.26,0-1.96,0-2.66,0c-10.16,0-20.32-0.05-30.48,0.04c-1.72,0.02-2.7-0.59-3.65-1.93c-11.48-16.2-23-32.36-34.52-48.53
		c-0.67-0.93-1.47-1.77-2.21-2.65c-0.27,0.12-0.54,0.23-0.82,0.35c-0.36,17.44-0.72,34.89-1.09,52.54c-6.22,0-12.4,0-18.79,0
		c0-39.19,0-78.42,0-117.97c6.36,0,12.71,0,19.14,0C304.76,21.82,304.76,39.86,304.76,57.94z"/>
	<path d="M229.76,25.97c-9.56,0-18.76,0-28.26,0c0-7.7,0-15.12,0-22.72c25.95,0,51.97,0,78.24,0c-0.37,7.53-0.74,14.96-1.12,22.66
		c-9.42,0-18.62,0-28.26,0c1.41,32.33,2.81,64.35,4.21,96.52c-9.42,0-18.55,0-28,0C227.63,90.34,228.69,58.3,229.76,25.97z"/>
	<path d="M386.6,121.06c0-6.34,0-12.23,0-18.31c2.77-0.18,5.47-0.36,8.29-0.55c0-26.51,0-52.9,0-79.67c-2.82,0-5.6,0-8.56,0
		c0-6.22,0-12.06,0-18.06c13.86,0,27.57,0,41.52,0c0,6.39,0,12.8,0,19.5c-3.01,0-5.88,0-9.09,0c0.33,26.32,0.65,52.34,0.98,78.64
		c2.8,0,5.26,0,8.18,0c0,6.38,0,12.48,0,18.45C414.39,121.06,400.49,121.06,386.6,121.06z"/>
</g>
</svg>
