<?xml version="1.0" encoding="utf-8"?>
<!-- Generator: Adobe Illustrator 27.8.0, SVG Export Plug-In . SVG Version: 6.00 Build 0)  -->
<svg version="1.1" id="Layer_1" xmlns="http://www.w3.org/2000/svg" xmlns:xlink="http://www.w3.org/1999/xlink" x="0px" y="0px"
	 viewBox="0 0 625.3 130.5" style="enable-background:new 0 0 625.3 130.5;" xml:space="preserve">
<style type="text/css">
	.st0{fill:#FFFFFF;}
</style>
<g>
	<path class="st0" d="M0,3.9c3.6,0,7,0,10.4,0c4.5,0,9,0.1,13.5,0c1.8,0,2.4,0.5,2.8,2.2c4.1,18.4,8.3,36.7,12.4,55
		c0,0.2,0.1,0.3,0.5,1.1c0.5-3.2,1-5.8,1.4-8.4c2-13.7,4.1-27.4,6.1-41.1c0.2-1.2,0.4-2,1.9-2c8.7,0,17.5,0,26.6,0
		c4.2,19.7,8.3,39.3,12.5,59c0.2,0,0.3,0,0.5,0c1.2-5.2,2.4-10.3,3.6-15.5c3.6-15.8,7.2-31.5,10.6-47.3c0.4-2,1.3-2.6,3.3-2.5
		c7.7,0.1,15.5,0.1,23.4,0.1c-1.8,7.1-3.6,14.2-5.5,21.4c-8.1,30.9-16.2,61.8-24.2,92.8c-0.7,2.6-1.7,3.4-4.3,3.3
		c-5.4-0.2-10.8-0.2-16.2,0c-1.8,0-2.6-0.6-3-2.3c-4-15.3-8-30.6-12.1-45.9c-0.2-0.8-0.4-1.5-1.1-2.3c-1,4.7-2,9.4-2.9,14
		c-2.4,11.5-4.7,23-7,34.6c-0.2,1.2-0.7,1.9-2.1,1.9c-6.7-0.1-13.3,0-20.3,0C20.5,82.6,10.3,43.4,0,3.9z"/>
	<path class="st0" d="M506.2,78.5c-1.3-24.6-2.6-49.2-3.9-74c8.1,0,16,0,24.1,0c0.3,38.9,0.6,77.8,0.8,116.8
		c-0.5,0.1-0.9,0.2-1.3,0.2c-9.8,0-19.5-0.1-29.2,0.1c-1.9,0-2.2-1.2-2.6-2.4c-5.4-15.1-10.6-30.2-16.1-45.2
		c-3.5-9.5-7.3-18.8-11-28.2c-0.3-0.8-0.7-1.6-1.5-2.3c1.9,25.9,3.8,51.8,5.8,77.9c-9,0-17.9,0-27,0c-0.5-38.9-1-77.8-1.5-117
		c0.8,0,1.6,0,2.4,0c10.8,0,21.5,0,32.2,0c1.8,0,2.5,0.5,3.1,2.2c8.1,23.4,16.3,46.8,24.4,70.2c0.2,0.6,0.4,1.2,0.7,1.8
		C505.8,78.5,506,78.5,506.2,78.5z"/>
	<path class="st0" d="M540.7,86.3c7.3-1.5,14.5-2.9,22.1-4.5c0.4,1.6,0.7,3.1,1.2,4.6c0.6,2.1,1.2,4.1,1.9,6.2
		c1.8,4.7,5.2,7.4,10.1,8.2s9.9,1,14.8-0.5c4.8-1.5,6.7-4.7,5.5-9.6c-1.1-4.6-3.5-8.2-8.4-9.6c-8-2.3-16-4.4-23.9-6.8
		c-4.1-1.2-8.2-2.8-12.1-4.5c-7.1-3.1-11.1-8.5-12.6-16.1c-1.9-10.1-2.2-20.1,1.5-29.9c4.3-11.6,12.3-19,24.8-21.4
		c7.9-1.5,15.7-1.8,23.5-0.1c13.2,2.9,21.4,11.5,26.3,23.6c2.4,5.9,3.8,12.2,3.5,19c-8.2,1.4-16.4,2.9-24.5,4.3
		c-0.9-4.5-1.4-8.8-2.7-12.8c-3.7-11.8-13.1-14.3-23.4-11.3c-4.1,1.2-6.7,4.1-7.5,8.5c-1.7,8.6,1.5,14.2,10,16.3
		c8.2,2,16.6,3.4,24.9,5.2c4,0.9,8,2.1,12,3.3c6.8,2.1,10.8,6.5,11.9,13.8c1.3,8.3,2.2,16.6,0.9,25c-1.8,12.2-8.5,20.7-20.3,24.7
		c-10.9,3.7-22.1,4-33.2,1.7c-8.6-1.7-15.1-6.6-19.2-14.5C544,101.8,541.2,94.5,540.7,86.3z"/>
	<path class="st0" d="M213.7,121.8c-9.1,0-17.9,0-27,0c-0.8-2.7-1.7-5.7-2.6-8.6c-1.3-4.4-2.7-8.9-3.9-13.3
		c-0.4-1.4-0.9-1.8-2.4-1.8c-9.7,0.4-19.4,0.7-29.2,1c-1.4,0-1.8,0.6-2.1,1.8c-1.8,6.5-3.6,12.9-5.4,19.4c-0.2,0.6-0.4,1.1-0.5,1.6
		c-9,0-17.8,0-27.1,0c1.5-4.8,2.9-9.2,4.3-13.7c11-34,22-68.1,33-102.1c0.5-1.5,1.1-2.3,2.9-2.2c6.2,0.1,12.5,0.1,18.7,0
		c1.6,0,2.2,0.6,2.7,2.1c12.6,37.8,25.2,75.6,37.9,113.3C213.3,119.9,213.4,120.7,213.7,121.8z M172.5,75
		c-3.1-10.5-6.1-20.7-9.1-30.9c-0.2,0-0.3,0-0.5,0c-3,10.6-6.1,21.2-9.2,32.2C160.1,75.9,166,75.5,172.5,75z"/>
	<path class="st0" d="M304.8,57.9c1.7,0.7,2.3-0.6,3-1.7c11.3-16.3,22.6-32.7,33.8-49.1c1.3-1.9,2.6-2.7,5-2.7
		c8.8,0.2,17.7,0.1,26.5,0.1c0.9,0,1.8,0,3.2,0C361.5,24,347,42.9,332.5,62c15.7,19.9,31.4,39.7,47.4,60c-1.3,0-2,0-2.7,0
		c-10.2,0-20.3-0.1-30.5,0c-1.7,0-2.7-0.6-3.6-1.9c-11.5-16.2-23-32.4-34.5-48.5c-0.7-0.9-1.5-1.8-2.2-2.7c-0.3,0.1-0.5,0.2-0.8,0.3
		c-0.4,17.4-0.7,34.9-1.1,52.5c-6.2,0-12.4,0-18.8,0c0-39.2,0-78.4,0-118c6.4,0,12.7,0,19.1,0C304.8,21.8,304.8,39.9,304.8,57.9z"/>
	<path class="st0" d="M229.8,26c-9.6,0-18.8,0-28.3,0c0-7.7,0-15.1,0-22.7c25.9,0,52,0,78.2,0c-0.4,7.5-0.7,15-1.1,22.7
		c-9.4,0-18.6,0-28.3,0c1.4,32.3,2.8,64.3,4.2,96.5c-9.4,0-18.6,0-28,0C227.6,90.3,228.7,58.3,229.8,26z"/>
	<path class="st0" d="M386.6,121.1c0-6.3,0-12.2,0-18.3c2.8-0.2,5.5-0.4,8.3-0.6c0-26.5,0-52.9,0-79.7c-2.8,0-5.6,0-8.6,0
		c0-6.2,0-12.1,0-18.1c13.9,0,27.6,0,41.5,0c0,6.4,0,12.8,0,19.5c-3,0-5.9,0-9.1,0c0.3,26.3,0.6,52.3,1,78.6c2.8,0,5.3,0,8.2,0
		c0,6.4,0,12.5,0,18.4C414.4,121.1,400.5,121.1,386.6,121.1z"/>
</g>
</svg>
