<?xml version="1.0" encoding="utf-8"?>
<!-- Generator: Adobe Illustrator 27.8.0, SVG Export Plug-In . SVG Version: 6.00 Build 0)  -->
<svg version="1.1" id="Layer_1" xmlns="http://www.w3.org/2000/svg" xmlns:xlink="http://www.w3.org/1999/xlink" x="0px" y="0px"
	 viewBox="0 0 131.69 130.52" style="enable-background:new 0 0 131.69 130.52;" xml:space="preserve">
<style type="text/css">
	.st0{fill:#EB156E;}
</style>
<path class="st0" d="M127.51,31.49c-0.91-7.56-2.8-14.83-7.23-21.19c-3.81-5.49-9-8.37-15.83-8.36c-5.92,0.01-11.3,1.78-16.4,4.51
	C74.4,13.75,65.8,25.33,60.3,39.47c-0.72,1.83-1.32,3.7-2.19,6.14c-0.72-1.21-1.11-1.84-1.47-2.48
	c-4.81-8.58-11.93-14.37-21.26-17.45C20.54,20.79,9.2,26.17,3.82,40.86c-4.25,11.61-2.13,22.72,3.52,33.31
	c5.76,10.8,14.34,19.31,23.22,27.5c11.36,10.47,23.63,19.69,37.88,26c3.25,1.44,3.19,1.41,5.2-1.67c2.95-4.51,5.66-9.24,9.05-13.4
	c9.5-11.66,19.55-22.88,28.92-34.65C122.38,64.43,129.69,49.51,127.51,31.49z"/>
</svg>
