<?xml version="1.0" encoding="utf-8"?>
<!-- Generator: Adobe Illustrator 27.8.0, SVG Export Plug-In . SVG Version: 6.00 Build 0)  -->
<svg version="1.1" id="Layer_1" xmlns="http://www.w3.org/2000/svg" xmlns:xlink="http://www.w3.org/1999/xlink" x="0px" y="0px"
	 viewBox="0 0 131.69 130.52" style="enable-background:new 0 0 131.69 130.52;" xml:space="preserve">
<style type="text/css">
	.st0{fill:#FFFFFF;}
	.st1{fill:#EB156E;}
</style>
<polygon class="st0" points="82.26,25.97 81.64,38.91 63.78,40.66 63.78,57.27 71.9,63.76 79.39,79.25 93.63,79.25 101.49,72.38 
	102.12,61.39 117.48,59.77 118.85,47.53 116.46,38.54 106.86,31.8 100.99,21.43 "/>
<g>
	<path class="st1" d="M58.11,45.61c0.87-2.44,1.47-4.31,2.19-6.14c5.5-14.14,14.1-25.72,27.75-33.02c5.1-2.73,10.48-4.5,16.4-4.51
		c6.83-0.01,12.02,2.87,15.83,8.36c4.43,6.36,6.32,13.63,7.23,21.19c2.18,18.02-5.13,32.94-15.9,46.46
		c-9.37,11.77-19.42,22.99-28.92,34.65c-3.39,4.16-6.1,8.89-9.05,13.4c-2.01,3.08-1.95,3.11-5.2,1.67
		c-14.25-6.31-26.52-15.53-37.88-26c-8.88-8.19-17.46-16.7-23.22-27.5c-5.65-10.59-7.77-21.7-3.52-33.31
		C9.2,26.17,20.54,20.79,35.38,25.68c9.33,3.08,16.45,8.87,21.26,17.45C57,43.77,57.39,44.4,58.11,45.61z M84.54,57.36
		c-0.84,6.06-1.63,11.76-2.47,17.78c4.26,0.21,8.3,0.47,12.34,0.59c3.75,0.12,3.75,0.06,3.75-3.78c0-4.15,0.05-8.31-0.02-12.46
		c-0.03-1.59,0.48-2.2,2.15-2.16c4.08,0.1,8.16,0.03,12.24,0.03c1.04,0,2.08,0,3.25,0c0.24-4.79,0.45-9.14,0.68-13.86
		c-5.94,0-11.46,0-16.9,0c0-5.96,0-11.56,0-17.53c-4.64,0.29-9.18,0.48-13.7,0.94c-0.64,0.06-1.58,1.39-1.63,2.17
		c-0.23,3.81-0.34,7.64-0.2,11.45c0.09,2.33-0.49,3.24-2.99,3.11c-3.82-0.21-7.66,0.04-11.49-0.09c-2.19-0.08-3.23,0.46-3.05,2.89
		c0.2,2.73,0.19,5.49,0,8.22c-0.16,2.3,0.77,2.79,2.88,2.73C74.29,57.27,79.19,57.36,84.54,57.36z"/>
</g>
</svg>
