<?xml version="1.0" encoding="utf-8"?>
<!-- Generator: Adobe Illustrator 27.8.0, SVG Export Plug-In . SVG Version: 6.00 Build 0)  -->
<svg version="1.1" id="Layer_1" xmlns="http://www.w3.org/2000/svg" xmlns:xlink="http://www.w3.org/1999/xlink" x="0px" y="0px"
	 viewBox="0 0 865.92 130.52" style="enable-background:new 0 0 865.92 130.52;" xml:space="preserve">
<style type="text/css">
	.st0{fill:#EB126E;}
</style>
<g>
	<path d="M486.79,73.94c10.99,15.9,21.79,31.54,32.78,47.44c-0.85,0.09-1.44,0.21-2.04,0.21c-10.49,0.02-20.99-0.01-31.48,0.09
		c-1.74,0.02-2.67-0.57-3.52-2.04c-8.08-13.92-16.23-27.81-24.41-41.67c-0.48-0.82-1.42-1.37-2.56-2.43c0,15.82,0,30.8,0,46.19
		c-6.61,0-13.29,0-20.33,0c-0.63-39.11-1.25-78.41-1.89-117.86c2.04,0,3.91,0.01,5.78,0c10.07-0.07,20.14-0.27,30.21-0.18
		c4.81,0.04,9.64,0.45,14.42,1.03c10.13,1.23,16.97,7.36,22.43,15.45c9.91,14.69,6.44,34.95-2.45,44.58
		c-3.96,4.28-8.91,6.86-14.43,8.47C488.59,73.42,487.87,73.63,486.79,73.94z M454.87,59.1c5.45-0.3,10.53-0.33,15.55-0.9
		c7.12-0.81,10.69-4.3,11.32-10.72c0.24-2.46,0.25-4.99,0.01-7.45c-0.71-7.33-4.78-12.28-12.03-13.64c-4.81-0.9-9.83-0.7-14.85-0.99
		C454.87,36.76,454.87,47.65,454.87,59.1z"/>
	<path d="M173.04,86.18c7.37-1.49,14.59-2.95,22-4.45c0.62,2.46,1.16,4.85,1.83,7.2c2.4,8.37,6.07,11.46,14.7,11.84
		c3.53,0.16,7.17,0,10.62-0.69c5.56-1.12,7.56-5.01,6.02-10.44c-1.31-4.6-4.14-7.69-8.78-9c-7.67-2.16-15.42-4.05-22.99-6.48
		c-5.18-1.66-10.26-3.8-15.16-6.17c-4.81-2.33-7.61-6.5-8.91-11.7c-2.86-11.46-3.19-22.79,1.47-33.91
		c4.56-10.87,12.58-17.41,24.29-19.5c7.53-1.34,15.06-1.68,22.55-0.14c13.86,2.84,22.41,11.84,27.04,24.63
		c1.78,4.91,2.18,10.32,3.16,15.51c0.3,1.58-0.31,2.28-2.08,2.55c-7.54,1.18-15.04,2.57-22.31,3.84c-0.87-4.3-1.39-8.59-2.64-12.66
		c-3.83-12.49-14.27-14.21-23.86-11.09c-5.59,1.82-7.94,7.31-7.01,14.1c0.73,5.37,3.53,8.67,8.76,9.82
		c8.51,1.87,17.07,3.53,25.57,5.43c4.2,0.94,8.35,2.15,12.48,3.39c6.9,2.07,10.71,6.57,11.79,13.85c1.22,8.25,2.18,16.43,0.85,24.73
		c-1.97,12.26-8.73,20.62-20.65,24.42c-11.59,3.69-23.37,4.08-35.15,0.87c-6.97-1.9-12.25-6.05-15.86-12.39
		C176.62,102.51,173.68,94.94,173.04,86.18z"/>
	<path class="st0" d="M833.59,48.95c-1.31-5.16-2.1-10.01-3.77-14.54c-4.29-11.65-16.91-12.22-24.8-8.42
		c-4.29,2.06-6.09,6.11-5.79,10.53c0.51,7.49,1.03,11.2,10.18,13.4c9.43,2.27,18.99,3.98,28.47,6.05c2.99,0.65,5.93,1.6,8.84,2.56
		c6.08,2.01,9.94,5.86,11.07,12.46c1.47,8.63,2.61,17.24,1.11,25.94c-2.35,13.65-10.51,22.04-23.97,25.16
		c-11.51,2.67-23.04,3.08-34.35-1.09c-5.42-2-9.53-5.61-12.52-10.56c-4.13-6.83-6.92-14.11-8.07-22.02
		c-0.18-1.23-0.02-2.16,1.36-2.43c6.66-1.32,13.33-2.62,20.21-3.97c0.53,2.13,1.05,4.11,1.51,6.1c1.77,7.71,6.05,12.76,14.47,12.81
		c4.18,0.03,8.47-0.18,12.53-1.08c4.23-0.94,5.77-3.68,5.31-8.01c-0.58-5.5-3.3-9.56-8.79-11.2c-6.51-1.95-13.12-3.57-19.62-5.56
		c-5.3-1.62-10.61-3.34-15.73-5.45c-6.91-2.85-11.17-7.99-12.59-15.52c-2.12-11.22-2.29-22.19,2.55-32.87
		c4.97-10.97,13.67-16.84,25.34-18.54c7.6-1.11,15.3-1.39,22.78,0.66c13.59,3.73,21.57,13.22,25.59,26.21
		c1.31,4.22,1.59,8.76,2.28,13.16c0.25,1.59-0.45,2.28-2.18,2.55C847.72,46.41,840.47,47.75,833.59,48.95z"/>
	<path d="M282.79,69.5c0,17.47,0,34.94,0,52.51c-7.36,0-14.17,0-21.42,0c0-39.22,0-78.46,0-117.92c6.88,0,14.06,0,21.11,0
		c0,6.78,0.03,13.48-0.01,20.18c-0.06,9.22-0.16,18.43-0.26,27.65c-0.02,1.41-0.21,2.81-0.18,4.22c0.01,0.58,0.4,1.66,0.56,1.65
		c0.74-0.05,1.73-0.18,2.14-0.68c1.31-1.6,2.41-3.38,3.59-5.09c10.6-15.39,21.18-30.79,31.85-46.13c0.6-0.87,1.87-1.79,2.83-1.81
		c10.08-0.13,20.16-0.08,30.23-0.07c0.3,0,0.6,0.05,1.34,0.12c-14.83,19.42-29.43,38.53-44.17,57.84
		c15.21,19.94,30.39,39.84,45.89,60.15c-1.33,0-2.13,0-2.93,0c-10.16,0-20.32-0.05-30.48,0.05c-1.81,0.02-2.82-0.59-3.81-2.05
		c-11.08-16.37-22.23-32.69-33.38-49.01c-0.51-0.74-1.22-1.35-1.83-2.02C283.49,69.23,283.14,69.36,282.79,69.5z"/>
	<path d="M172.45,122.09c-2.95,0-5.59,0-8.22,0c-5.66,0-11.33-0.08-16.99,0.05c-1.71,0.04-2.43-0.41-2.9-2.11
		c-1.88-6.78-3.97-13.5-5.9-20.27c-0.43-1.51-1.01-2.1-2.72-2.02c-9.64,0.44-19.28,0.75-28.93,1.03c-1.54,0.04-2.11,0.6-2.5,2.07
		c-1.68,6.32-3.52,12.6-5.31,18.89c-0.22,0.78-0.48,1.54-0.69,2.2c-9.15,0-18.11,0-27.43,0c1.38-4.24,2.68-8.22,3.98-12.2
		C86.11,75.24,97.39,40.77,108.6,6.28c0.59-1.82,1.42-2.41,3.32-2.37c6.07,0.13,12.16,0.15,18.23-0.01c2.01-0.05,2.68,0.8,3.25,2.49
		c6.06,18.06,12.16,36.1,18.28,54.14c6.67,19.68,13.36,39.36,20.04,59.04C171.94,120.24,172.12,120.94,172.45,122.09z M130.64,73.9
		c-3.15-10.7-6.17-20.96-9.18-31.21c-0.16,0.02-0.32,0.04-0.48,0.06c-3.07,10.74-6.14,21.48-9.3,32.55
		C118.23,74.81,124.24,74.37,130.64,73.9z"/>
	<path class="st0" d="M533.53,3.75c0.89-0.06,1.61-0.16,2.34-0.15c9.91,0,19.82,0.05,29.73,0c1.71-0.01,2.38,0.37,2.66,2.26
		c3.06,20.53,6.25,41.04,9.42,61.56c0.1,0.63,0.35,1.23,1.04,1.87c1.2-4.3,2.42-8.6,3.6-12.9c4.54-16.69,9.09-33.37,13.55-50.07
		c0.53-1.97,1.24-2.81,3.47-2.75c6.47,0.18,12.96,0.06,19.83,0.06c-1.28,4.71-2.47,9.14-3.7,13.55
		c-9.46,33.96-18.95,67.91-28.33,101.89c-0.72,2.59-1.74,3.58-4.53,3.45c-5.22-0.26-10.46-0.19-15.68-0.02
		c-2.06,0.07-2.9-0.59-3.4-2.55c-4.98-19.47-10.04-38.93-15.09-58.39c-4.77-18.33-9.56-36.66-14.34-54.99
		C533.88,5.72,533.74,4.83,533.53,3.75z"/>
	<path d="M420.79,3.31c0,8.51,0,16.55,0,24.86c-13.44,0.33-26.8,0.65-40.17,0.98c0,6.01,0,11.75,0,17.47c12.33,0,24.36,0,36.6,0
		c0,8.05,0,16.15,0,24.62c-4.92,0.33-9.94,0.69-14.97,1.01c-5.98,0.38-11.96,0.68-17.93,1.13c-0.65,0.05-1.79,0.87-1.79,1.35
		c-0.11,8.02-0.08,16.05-0.08,24.37c13.09-1.1,25.47-2.15,38.15-3.22c0,8.93,0,17.61,0,26.51c-18.49,0-37.18,0-56.22,0
		c-1.38-39.12-2.76-78.35-4.16-117.86C380.49,4.11,400.49,3.71,420.79,3.31z"/>
	<path class="st0" d="M687.6,122.33c-18.89,0-37.35,0-56.04,0c-0.21-3.8-0.48-7.49-0.6-11.19c-0.43-13.77-0.78-27.54-1.2-41.3
		c-0.29-9.2-0.65-18.4-1-27.6c-0.44-11.6-0.9-23.2-1.34-34.8c-0.03-0.81,0-1.62,0-2.7c20.08-0.41,39.91-0.81,60.01-1.22
		c0.06,1.08,0.14,1.87,0.14,2.67c0.02,6.31-0.04,12.63,0.06,18.94c0.03,1.9-0.28,2.84-2.52,2.84c-6.07,0.01-12.14,0.28-18.21,0.43
		c-5.65,0.14-11.31,0.34-16.96,0.35c-2.28,0.01-3.01,0.81-2.9,3.08c0.2,4.23,0.13,8.47,0.11,12.71c-0.01,1.86,0.67,2.58,2.67,2.53
		c10.48-0.26,20.97-0.34,31.45-0.6c2.2-0.06,2.88,0.63,2.85,2.82c-0.12,7.13-0.04,14.27-0.04,21.59c-2.15,0.25-4.18,0.57-6.22,0.7
		c-8.79,0.55-17.59,1.07-26.38,1.52c-1.66,0.08-2.39,0.58-2.34,2.34c0.2,7.38,0.35,14.76,0.45,22.15c0.03,2.06,1.31,1.66,2.58,1.55
		c10.75-0.93,21.51-1.81,32.26-2.8c2.18-0.2,2.9,0.41,2.88,2.67c-0.03,6.8,0.18,13.61,0.29,20.41
		C687.61,120.3,687.6,121.19,687.6,122.33z"/>
	<path class="st0" d="M694.29,26.32c0-7.41-0.03-14.37,0.06-21.33c0.01-0.47,0.77-1.08,1.32-1.34c0.48-0.23,1.14-0.06,1.73-0.06
		c24.23,0,48.46,0,72.68,0c0.89,0,1.79,0,3.08,0c-0.4,7.63-0.78,14.95-1.18,22.56c-9.4,0-18.68,0-28.53,0
		c1.42,32.2,2.83,64.09,4.24,96.14c-9.41,0-18.43,0-27.85,0c1.07-31.98,2.14-63.83,3.22-95.97
		C713.36,26.32,704.08,26.32,694.29,26.32z"/>
	<path d="M2.25,3.91c26.38,0,52.66,0,79.08,0c-0.38,7.45-0.75,14.62-1.14,22.06c-9.49,0-18.78,0-28.53,0
		c1.42,32.16,2.83,64.01,4.25,96.02c-9.44,0-18.66,0-28.28,0c1.07-31.86,2.13-63.72,3.21-95.9c-9.6,0-18.97,0-28.6,0
		C2.25,18.53,2.25,11.26,2.25,3.91z"/>
</g>
</svg>
