<?xml version="1.0" encoding="utf-8"?>
<!-- Generator: Adobe Illustrator 27.8.0, SVG Export Plug-In . SVG Version: 6.00 Build 0)  -->
<svg version="1.1" id="Layer_1" xmlns="http://www.w3.org/2000/svg" xmlns:xlink="http://www.w3.org/1999/xlink" x="0px" y="0px"
	 viewBox="0 0 865.9 130.5" style="enable-background:new 0 0 865.9 130.5;" xml:space="preserve">
<style type="text/css">
	.st0{fill:#FFFFFF;}
	.st1{fill:#EB126E;}
</style>
<path class="st0" d="M486.8,73.9c11,15.9,21.8,31.5,32.8,47.4c-0.8,0.1-1.4,0.2-2,0.2c-10.5,0-21,0-31.5,0.1c-1.7,0-2.7-0.6-3.5-2
	c-8.1-13.9-16.2-27.8-24.4-41.7c-0.5-0.8-1.4-1.4-2.6-2.4c0,15.8,0,30.8,0,46.2c-6.6,0-13.3,0-20.3,0c-0.6-39.1-1.2-78.4-1.9-117.9
	c2,0,3.9,0,5.8,0c10.1-0.1,20.1-0.3,30.2-0.2c4.8,0,9.6,0.4,14.4,1c10.1,1.2,17,7.4,22.4,15.4c9.9,14.7,6.4,35-2.5,44.6
	c-4,4.3-8.9,6.9-14.4,8.5C488.6,73.4,487.9,73.6,486.8,73.9z M454.9,59.1c5.5-0.3,10.5-0.3,15.5-0.9c7.1-0.8,10.7-4.3,11.3-10.7
	c0.2-2.5,0.2-5,0-7.5c-0.7-7.3-4.8-12.3-12-13.6c-4.8-0.9-9.8-0.7-14.9-1C454.9,36.8,454.9,47.6,454.9,59.1z"/>
<path class="st0" d="M173,86.2c7.4-1.5,14.6-2.9,22-4.4c0.6,2.5,1.2,4.8,1.8,7.2c2.4,8.4,6.1,11.5,14.7,11.8c3.5,0.2,7.2,0,10.6-0.7
	c5.6-1.1,7.6-5,6-10.4c-1.3-4.6-4.1-7.7-8.8-9c-7.7-2.2-15.4-4.1-23-6.5c-5.2-1.7-10.3-3.8-15.2-6.2c-4.8-2.3-7.6-6.5-8.9-11.7
	c-2.9-11.5-3.2-22.8,1.5-33.9c4.6-10.9,12.6-17.4,24.3-19.5c7.5-1.3,15.1-1.7,22.6-0.1c13.9,2.8,22.4,11.8,27,24.6
	c1.8,4.9,2.2,10.3,3.2,15.5c0.3,1.6-0.3,2.3-2.1,2.5c-7.5,1.2-15,2.6-22.3,3.8c-0.9-4.3-1.4-8.6-2.6-12.7
	C220,24.1,209.6,22.4,200,25.5c-5.6,1.8-7.9,7.3-7,14.1c0.7,5.4,3.5,8.7,8.8,9.8c8.5,1.9,17.1,3.5,25.6,5.4
	c4.2,0.9,8.4,2.2,12.5,3.4c6.9,2.1,10.7,6.6,11.8,13.8c1.2,8.2,2.2,16.4,0.9,24.7c-2,12.3-8.7,20.6-20.6,24.4
	c-11.6,3.7-23.4,4.1-35.1,0.9c-7-1.9-12.2-6.1-15.9-12.4C176.6,102.5,173.7,94.9,173,86.2z"/>
<path class="st1" d="M833.6,48.9c-1.3-5.2-2.1-10-3.8-14.5c-4.3-11.6-16.9-12.2-24.8-8.4c-4.3,2.1-6.1,6.1-5.8,10.5
	c0.5,7.5,1,11.2,10.2,13.4c9.4,2.3,19,4,28.5,6c3,0.7,5.9,1.6,8.8,2.6c6.1,2,9.9,5.9,11.1,12.5c1.5,8.6,2.6,17.2,1.1,25.9
	c-2.3,13.7-10.5,22-24,25.2c-11.5,2.7-23,3.1-34.3-1.1c-5.4-2-9.5-5.6-12.5-10.6c-4.1-6.8-6.9-14.1-8.1-22c-0.2-1.2,0-2.2,1.4-2.4
	c6.7-1.3,13.3-2.6,20.2-4c0.5,2.1,1,4.1,1.5,6.1c1.8,7.7,6,12.8,14.5,12.8c4.2,0,8.5-0.2,12.5-1.1c4.2-0.9,5.8-3.7,5.3-8
	c-0.6-5.5-3.3-9.6-8.8-11.2c-6.5-1.9-13.1-3.6-19.6-5.6c-5.3-1.6-10.6-3.3-15.7-5.4c-6.9-2.8-11.2-8-12.6-15.5
	c-2.1-11.2-2.3-22.2,2.5-32.9c5-11,13.7-16.8,25.3-18.5c7.6-1.1,15.3-1.4,22.8,0.7c13.6,3.7,21.6,13.2,25.6,26.2
	c1.3,4.2,1.6,8.8,2.3,13.2c0.2,1.6-0.5,2.3-2.2,2.5C847.7,46.4,840.5,47.7,833.6,48.9z"/>
<path class="st0" d="M282.8,69.5c0,17.5,0,34.9,0,52.5c-7.4,0-14.2,0-21.4,0c0-39.2,0-78.5,0-117.9c6.9,0,14.1,0,21.1,0
	c0,6.8,0,13.5,0,20.2c-0.1,9.2-0.2,18.4-0.3,27.7c0,1.4-0.2,2.8-0.2,4.2c0,0.6,0.4,1.7,0.6,1.7c0.7,0,1.7-0.2,2.1-0.7
	c1.3-1.6,2.4-3.4,3.6-5.1c10.6-15.4,21.2-30.8,31.9-46.1c0.6-0.9,1.9-1.8,2.8-1.8C333.1,3.9,343.2,4,353.2,4c0.3,0,0.6,0.1,1.3,0.1
	c-14.8,19.4-29.4,38.5-44.2,57.8c15.2,19.9,30.4,39.8,45.9,60.2c-1.3,0-2.1,0-2.9,0c-10.2,0-20.3-0.1-30.5,0.1
	c-1.8,0-2.8-0.6-3.8-2.1c-11.1-16.4-22.2-32.7-33.4-49c-0.5-0.7-1.2-1.3-1.8-2C283.5,69.2,283.1,69.4,282.8,69.5z"/>
<path class="st0" d="M172.4,122.1c-2.9,0-5.6,0-8.2,0c-5.7,0-11.3-0.1-17,0.1c-1.7,0-2.4-0.4-2.9-2.1c-1.9-6.8-4-13.5-5.9-20.3
	c-0.4-1.5-1-2.1-2.7-2c-9.6,0.4-19.3,0.8-28.9,1c-1.5,0-2.1,0.6-2.5,2.1c-1.7,6.3-3.5,12.6-5.3,18.9c-0.2,0.8-0.5,1.5-0.7,2.2
	c-9.2,0-18.1,0-27.4,0c1.4-4.2,2.7-8.2,4-12.2c11.3-34.5,22.5-69,33.8-103.4c0.6-1.8,1.4-2.4,3.3-2.4c6.1,0.1,12.2,0.1,18.2,0
	c2,0,2.7,0.8,3.2,2.5c6.1,18.1,12.2,36.1,18.3,54.1c6.7,19.7,13.4,39.4,20,59C171.9,120.2,172.1,120.9,172.4,122.1z M130.6,73.9
	c-3.2-10.7-6.2-21-9.2-31.2c-0.2,0-0.3,0-0.5,0.1c-3.1,10.7-6.1,21.5-9.3,32.5C118.2,74.8,124.2,74.4,130.6,73.9z"/>
<path class="st1" d="M533.5,3.7c0.9-0.1,1.6-0.2,2.3-0.2c9.9,0,19.8,0,29.7,0c1.7,0,2.4,0.4,2.7,2.3c3.1,20.5,6.2,41,9.4,61.6
	c0.1,0.6,0.3,1.2,1,1.9c1.2-4.3,2.4-8.6,3.6-12.9c4.5-16.7,9.1-33.4,13.5-50.1c0.5-2,1.2-2.8,3.5-2.7c6.5,0.2,13,0.1,19.8,0.1
	c-1.3,4.7-2.5,9.1-3.7,13.6c-9.5,34-19,67.9-28.3,101.9c-0.7,2.6-1.7,3.6-4.5,3.4c-5.2-0.3-10.5-0.2-15.7,0
	c-2.1,0.1-2.9-0.6-3.4-2.6c-5-19.5-10-38.9-15.1-58.4c-4.8-18.3-9.6-36.7-14.3-55C533.9,5.7,533.7,4.8,533.5,3.7z"/>
<path class="st0" d="M420.8,3.3c0,8.5,0,16.5,0,24.9c-13.4,0.3-26.8,0.6-40.2,1c0,6,0,11.8,0,17.5c12.3,0,24.4,0,36.6,0
	c0,8,0,16.1,0,24.6c-4.9,0.3-9.9,0.7-15,1c-6,0.4-12,0.7-17.9,1.1c-0.6,0.1-1.8,0.9-1.8,1.3c-0.1,8-0.1,16.1-0.1,24.4
	c13.1-1.1,25.5-2.2,38.1-3.2c0,8.9,0,17.6,0,26.5c-18.5,0-37.2,0-56.2,0C363,83.3,361.6,44,360.2,4.5C380.5,4.1,400.5,3.7,420.8,3.3
	z"/>
<path class="st1" d="M687.6,122.3c-18.9,0-37.3,0-56,0c-0.2-3.8-0.5-7.5-0.6-11.2c-0.4-13.8-0.8-27.5-1.2-41.3
	c-0.3-9.2-0.7-18.4-1-27.6c-0.4-11.6-0.9-23.2-1.3-34.8c0-0.8,0-1.6,0-2.7c20.1-0.4,39.9-0.8,60-1.2c0.1,1.1,0.1,1.9,0.1,2.7
	c0,6.3,0,12.6,0.1,18.9c0,1.9-0.3,2.8-2.5,2.8c-6.1,0-12.1,0.3-18.2,0.4c-5.7,0.1-11.3,0.3-17,0.4c-2.3,0-3,0.8-2.9,3.1
	c0.2,4.2,0.1,8.5,0.1,12.7c0,1.9,0.7,2.6,2.7,2.5c10.5-0.3,21-0.3,31.5-0.6c2.2-0.1,2.9,0.6,2.8,2.8c-0.1,7.1,0,14.3,0,21.6
	c-2.2,0.2-4.2,0.6-6.2,0.7c-8.8,0.6-17.6,1.1-26.4,1.5c-1.7,0.1-2.4,0.6-2.3,2.3c0.2,7.4,0.3,14.8,0.5,22.2c0,2.1,1.3,1.7,2.6,1.6
	c10.8-0.9,21.5-1.8,32.3-2.8c2.2-0.2,2.9,0.4,2.9,2.7c0,6.8,0.2,13.6,0.3,20.4C687.6,120.3,687.6,121.2,687.6,122.3z"/>
<path class="st1" d="M694.3,26.3c0-7.4,0-14.4,0.1-21.3c0-0.5,0.8-1.1,1.3-1.3c0.5-0.2,1.1-0.1,1.7-0.1c24.2,0,48.5,0,72.7,0
	c0.9,0,1.8,0,3.1,0c-0.4,7.6-0.8,14.9-1.2,22.6c-9.4,0-18.7,0-28.5,0c1.4,32.2,2.8,64.1,4.2,96.1c-9.4,0-18.4,0-27.8,0
	c1.1-32,2.1-63.8,3.2-96C713.4,26.3,704.1,26.3,694.3,26.3z"/>
<path class="st0" d="M2.2,3.9c26.4,0,52.7,0,79.1,0C81,11.4,80.6,18.5,80.2,26c-9.5,0-18.8,0-28.5,0c1.4,32.2,2.8,64,4.2,96
	c-9.4,0-18.7,0-28.3,0c1.1-31.9,2.1-63.7,3.2-95.9c-9.6,0-19,0-28.6,0C2.2,18.5,2.2,11.3,2.2,3.9z"/>
</svg>
